<svg width="300" height="100" viewBox="0 0 503 100" fill="none" xmlns="http://www.w3.org/2000/svg">
<g clip-path="url(#clip0)">
<path d="M98.4717 45.948C98.826 50.532 95.6012 54.6014 91.2715 55.0358C87.9567 55.3681 84.9581 53.4725 83.573 50.5119L79.6436 50.8582L76.6771 52.2895C75.9985 52.6157 75.5421 53.2643 75.438 54.0089C75.1578 56.0166 74.6493 57.9503 73.9427 59.7879C73.7025 60.4104 73.7446 61.105 74.0708 61.6855L75.1277 63.5751L78.0663 65.5468C79.6156 64.9543 81.4191 65.0964 82.9024 66.0913C85.4165 67.7787 86.0191 71.2517 84.1495 73.6957C82.5401 75.8015 79.5475 76.38 77.2696 75.0269C75.8183 74.1661 74.9416 72.7369 74.7274 71.2096L71.4706 69.0258L69.4209 68.7755C68.7163 68.6895 68.0157 68.9317 67.5032 69.4221C65.7738 71.0695 63.8201 72.4847 61.6963 73.6177C60.9817 73.998 60.5233 74.7286 60.4732 75.5353L60.213 79.6869L61.5021 84.8012C63.696 85.4138 65.5095 87.1532 66.106 89.5193C67.0068 93.0963 64.7849 96.7254 61.1618 97.5321C57.893 98.2607 54.5402 96.3551 53.5013 93.1704C52.6926 90.6843 53.4352 88.1141 55.1447 86.4346L53.8496 81.2902L51.8499 78.0755C51.3134 77.2127 50.3646 76.7023 49.3477 76.7043C49.3417 76.7043 49.3377 76.7043 49.3317 76.7043C47.5802 76.7043 45.8668 76.5302 44.2093 76.2039C43.2225 76.0077 42.2036 76.32 41.511 77.0506L38.8688 79.839L35.9103 85.9762C36.6028 87.3834 36.6649 89.0829 35.9323 90.6062C34.6152 93.3365 31.2563 94.4214 28.572 92.9122C26.274 91.6171 25.2792 88.7586 26.28 86.3165C26.9626 84.6511 28.3778 83.5381 29.9792 83.1658L32.9557 76.9886L33.5402 72.843C33.6463 72.0784 33.3541 71.3077 32.7536 70.8233C30.3855 68.9016 28.3558 66.5817 26.7684 63.9634C26.3741 63.3129 25.6655 62.9185 24.9049 62.9125L20.7653 62.8725L16.2335 64.2977C15.9152 67.1161 13.9855 69.6203 11.1071 70.525C7.23977 71.7421 3.12025 69.6163 1.86518 65.773C0.610108 61.9317 2.72992 57.7301 6.56719 56.461C9.25349 55.5723 12.0759 56.3109 13.9855 58.1264L18.7956 56.6132L22.3086 54.109C22.8311 53.7387 23.1093 53.1182 23.0573 52.4816C22.9992 51.775 22.9692 51.0624 22.9692 50.3418C22.9692 46.4265 23.8299 42.7093 25.3673 39.3664C25.5914 38.876 25.5854 38.3115 25.3492 37.8271L24.3083 35.6993L21.4839 33.5675C19.9026 34.0739 18.1111 33.8317 16.6858 32.7568C14.2678 30.9312 13.8594 27.4302 15.8611 25.0942C17.5846 23.0825 20.6052 22.6702 22.8051 24.1474C24.2063 25.0882 25.0029 26.5615 25.131 28.0988L28.2617 30.4608L31.4164 31.0233C33.7124 28.8915 36.3887 27.164 39.3292 25.953L40.0698 21.4531L39.135 16.8052C36.3686 16.0926 34.1227 13.9727 33.5182 11.1463C32.6655 7.15291 35.4098 3.26359 39.6494 2.46091C43.8871 1.65822 48.0146 4.24243 48.8673 8.23584C49.5059 11.2244 48.1307 14.1529 45.6205 15.7743L46.5033 20.158L48.6712 23.617C48.8133 23.8432 49.0615 23.9793 49.3277 23.9793H49.3317C54.296 23.9793 58.9439 25.3605 62.9133 27.7585C63.1315 27.8886 63.3997 27.9066 63.6299 27.7985L67.0248 26.2252L70.9882 21.9375C70.75 20.4002 71.1884 18.7708 72.3274 17.5398C74.3851 15.3159 77.9081 15.2598 80.0339 17.4837C81.8975 19.4354 81.9696 22.5481 80.2001 24.5858C79.0551 25.9049 77.4117 26.5135 75.8063 26.3933L71.8429 30.681L70.5558 34.144C70.4658 34.3842 70.5058 34.6524 70.6559 34.8606C72.2193 37.0064 73.4663 39.3965 74.3271 41.9626C74.5653 42.6672 75.1257 43.2157 75.8424 43.4179L79.0651 44.3207L83.2527 43.9503C84.2796 40.9898 86.8438 38.7499 89.9924 38.4336C94.3221 37.9993 98.1194 41.3641 98.4717 45.948Z" fill="#38B2AC"/>
<path d="M49.3317 69.8625C60.1127 69.8625 68.8524 61.1228 68.8524 50.3418C68.8524 39.5608 60.1127 30.8211 49.3317 30.8211C38.5508 30.8211 29.8111 39.5608 29.8111 50.3418C29.8111 61.1228 38.5508 69.8625 49.3317 69.8625Z" fill="#81E6D9"/>
<path d="M35.7609 50.3418C35.7609 40.5721 42.9388 32.4778 52.3078 31.0451C51.3378 30.8968 50.343 30.8211 49.3315 30.8211C38.5503 30.8211 29.8108 39.5606 29.8108 50.3418C29.8108 61.123 38.5503 69.8625 49.3315 69.8625C50.343 69.8625 51.3364 69.7856 52.3064 69.6373C42.9376 68.2045 35.7609 60.1116 35.7609 50.3418Z" fill="#4FD1C5"/>
<path d="M16.487 14.8535C19.5572 14.8535 22.046 12.3647 22.046 9.29454C22.046 6.22442 19.5572 3.7356 16.487 3.7356C13.4169 3.7356 10.9281 6.22442 10.9281 9.29454C10.9281 12.3647 13.4169 14.8535 16.487 14.8535Z" fill="#38B2AC"/>
<path d="M14.9674 86.2417C16.9952 86.2417 18.6391 84.5978 18.6391 82.5699C18.6391 80.5421 16.9952 78.8982 14.9674 78.8982C12.9395 78.8982 11.2956 80.5421 11.2956 82.5699C11.2956 84.5978 12.9395 86.2417 14.9674 86.2417Z" fill="#38B2AC"/>
<path d="M82.3829 94.0097C85.3698 94.0097 87.7911 91.5884 87.7911 88.6015C87.7911 85.6146 85.3698 83.1933 82.3829 83.1933C79.396 83.1933 76.9747 85.6146 76.9747 88.6015C76.9747 91.5884 79.396 94.0097 82.3829 94.0097Z" fill="#38B2AC"/>
<path d="M43.3398 50.0005C46.1245 50.0005 48.3819 47.7431 48.3819 44.9584C48.3819 42.1737 46.1245 39.9163 43.3398 39.9163C40.5551 39.9163 38.2977 42.1737 38.2977 44.9584C38.2977 47.7431 40.5551 50.0005 43.3398 50.0005Z" fill="#38B2AC"/>
<path d="M47.3872 64.0515C49.2826 64.0515 50.8192 62.515 50.8192 60.6196C50.8192 58.7242 49.2826 57.1877 47.3872 57.1877C45.4918 57.1877 43.9553 58.7242 43.9553 60.6196C43.9553 62.515 45.4918 64.0515 47.3872 64.0515Z" fill="#38B2AC"/>
<path d="M58.1637 53.2236C59.7553 53.2236 61.0455 51.9334 61.0455 50.3418C61.0455 48.7502 59.7553 47.4599 58.1637 47.4599C56.572 47.4599 55.2818 48.7502 55.2818 50.3418C55.2818 51.9334 56.572 53.2236 58.1637 53.2236Z" fill="#38B2AC"/>
<path d="M99.9696 45.8327C99.7608 43.1224 98.5356 40.7006 96.52 39.0131C94.6332 37.4336 92.2622 36.6973 89.8431 36.9399C86.5439 37.2708 83.638 39.4291 82.2056 42.5361L79.2073 42.801L76.2479 41.9714C76.0179 41.907 75.8324 41.7248 75.7515 41.4842C74.8916 38.9258 73.6641 36.51 72.1002 34.2971L73.1475 31.4813L76.4529 27.9062C78.3329 27.8432 80.0812 27.0145 81.3349 25.5694C83.6034 22.9546 83.5091 18.9474 81.1199 16.4466C79.8086 15.0743 78.0423 14.322 76.153 14.3422C74.2876 14.3575 72.4919 15.1513 71.226 16.5207C69.986 17.8619 69.351 19.6112 69.4299 21.4119L66.1241 24.9875L63.3541 26.2724C59.2226 23.8574 54.531 22.5513 49.7321 22.4816L47.9209 19.5931L47.2822 16.419C49.827 14.3382 51.016 11.1063 50.336 7.92237C49.3155 3.14449 44.3955 0.032228 39.3694 0.985642C36.8389 1.46525 34.6858 2.87245 33.3068 4.94743C32.0151 6.89129 31.569 9.20386 32.0508 11.459C32.6929 14.4658 34.8726 16.8912 37.8379 17.9734L38.5435 21.4799L37.9822 24.8979C35.4256 26.0414 33.0678 27.5575 30.9554 29.4157L28.8793 29.0458L26.5332 27.2759C26.198 25.4942 25.1695 23.9256 23.6414 22.9004C20.7895 20.9867 16.9547 21.5102 14.7212 24.1178C13.4865 25.5594 12.9188 27.3892 13.1228 29.2696C13.324 31.124 14.2932 32.8316 15.7819 33.9548C17.3212 35.116 19.2789 35.559 21.1527 35.1989L23.1185 36.6819L24.0003 38.4863C24.0393 38.5661 24.0403 38.6582 24.0033 38.7387C22.3217 42.3952 21.4691 46.2989 21.4691 50.3416C21.4691 51.0898 21.5002 51.8505 21.5612 52.6023C21.5706 52.7184 21.5248 52.8245 21.4383 52.886L18.1185 55.2514L14.3292 56.4434C12.0026 54.6433 8.92621 54.0996 6.09459 55.0354C6.03794 55.0542 5.98209 55.0744 5.92645 55.0951L5.87961 55.1123C5.09954 55.3933 4.69499 56.2534 4.97583 57.0335C5.25667 57.8134 6.11641 58.2183 6.89707 57.9373L6.96733 57.9117C6.99095 57.9031 7.01458 57.894 7.038 57.8862C9.10596 57.2024 11.3719 57.7111 12.9518 59.2134C13.2351 59.4826 13.6068 59.6265 13.9863 59.6265C14.1369 59.6265 14.2888 59.6039 14.4367 59.5573L19.2464 58.0442C19.3968 57.9969 19.5387 57.9263 19.6672 57.8348L23.1806 55.3315C24.1226 54.6605 24.6488 53.5213 24.554 52.3585C24.4995 51.6873 24.4717 51.0088 24.4717 50.3414C24.4717 46.7349 25.2319 43.2531 26.7314 39.993C27.1464 39.0904 27.1344 38.0607 26.6982 37.1679L25.6585 35.0405C25.5548 34.8281 25.4025 34.6436 25.2139 34.5013L22.3877 32.369C21.9982 32.0752 21.4899 31.9889 21.0257 32.1378C19.8535 32.5134 18.5694 32.2964 17.5904 31.5578C16.7483 30.9226 16.222 29.9948 16.1081 28.9455C15.9944 27.8974 16.3119 26.8766 17.0019 26.0709C18.225 24.643 20.4066 24.3454 21.9688 25.3935C22.9318 26.0398 23.5395 27.0715 23.6362 28.2245C23.6718 28.6501 23.887 29.0404 24.2281 29.2976L27.3584 31.6592C27.5469 31.8016 27.7665 31.8972 27.9991 31.9387L31.153 32.5008C31.6172 32.5836 32.0924 32.4435 32.4375 32.1232C34.6348 30.0843 37.1461 28.4753 39.9023 27.341C40.3837 27.1428 40.728 26.7096 40.8122 26.196L41.5513 21.6961C41.5807 21.5172 41.5773 21.3344 41.5417 21.1567L40.6067 16.5097C40.4932 15.9454 40.067 15.4956 39.5095 15.3521C37.188 14.754 35.4553 13.0219 34.9877 10.8323C34.6762 9.37421 34.9677 7.87453 35.8084 6.60945C36.7362 5.21325 38.1998 4.26364 39.9295 3.93576C43.367 3.28481 46.7181 5.35397 47.4005 8.5495C47.8891 10.8379 46.871 13.1789 44.8067 14.5136C44.2888 14.8485 44.0284 15.466 44.1501 16.0705L45.0323 20.4543C45.0681 20.632 45.1357 20.8018 45.232 20.9555L47.4005 24.4147C47.8192 25.0826 48.5396 25.4814 49.3315 25.4814H49.3323C53.851 25.4814 58.2792 26.7128 62.1387 29.0428C62.7856 29.4333 63.5797 29.4776 64.2627 29.1611L67.657 27.5866C67.8347 27.5041 67.9947 27.3876 68.1276 27.2439L72.091 22.957C72.402 22.6207 72.5424 22.1609 72.4723 21.7081C72.2943 20.5584 72.6438 19.4106 73.4311 18.5593C74.1471 17.7848 75.1228 17.3536 76.1781 17.3448C77.2294 17.3446 78.2166 17.7538 78.9494 18.521C80.2796 19.9132 80.3314 22.1449 79.0673 23.6018C78.2747 24.5153 77.1277 24.9869 75.9202 24.8963C75.4637 24.8616 75.0159 25.038 74.7052 25.3743L70.7418 29.6611C70.6087 29.8049 70.5052 29.9734 70.437 30.157L69.1485 33.6215C68.8836 34.3335 68.9939 35.127 69.4431 35.7441C70.9366 37.7959 72.1016 40.049 72.9057 42.4412C73.3034 43.6249 74.25 44.5302 75.438 44.8631L78.6614 45.7665C78.8359 45.8155 79.0179 45.8321 79.1986 45.8163L83.3848 45.4466C83.9737 45.3946 84.4771 45.002 84.6711 44.4436C85.5378 41.9468 87.6859 40.1743 90.1434 39.9279C91.7506 39.7666 93.3315 40.2596 94.5934 41.3159C95.984 42.4801 96.8305 44.1663 96.9766 46.0637C97.0731 47.3176 96.8465 48.5767 96.3213 49.7051C95.9714 50.4567 96.2969 51.3497 97.0487 51.6998C97.8007 52.0497 98.6935 51.7242 99.0434 50.9723C99.785 49.377 100.105 47.5999 99.9696 45.8327Z" fill="#234E52"/>
<path d="M92.4137 53.2665C91.9924 53.4052 91.5576 53.4977 91.1216 53.5415C88.5236 53.8016 86.0953 52.3629 84.9329 49.8754C84.6657 49.3037 84.069 48.9596 83.4407 49.0157L79.5109 49.3628C79.3301 49.3788 79.154 49.4272 78.9907 49.5061L76.0243 50.9371C74.9006 51.4792 74.1251 52.5501 73.9503 53.8016C73.6901 55.6637 73.2159 57.4965 72.5411 59.2486C72.1384 60.2945 72.2181 61.4501 72.7599 62.4187L73.8164 64.3079C73.9317 64.5141 74.0941 64.6903 74.2904 64.8218L77.2306 66.7943C77.6355 67.0661 78.1477 67.1239 78.6033 66.9498C79.7525 66.51 81.0468 66.6553 82.0655 67.3387C82.9412 67.9262 83.5183 68.8234 83.6901 69.8647C83.8616 70.9048 83.6014 71.9418 82.9568 72.7846C81.8147 74.2782 79.6532 74.6962 78.0352 73.736C77.038 73.1441 76.3738 72.1474 76.2135 71.0016C76.1542 70.5787 75.9176 70.201 75.5629 69.9632L72.3065 67.7785C72.1104 67.6468 71.8858 67.5633 71.6514 67.5349L69.6018 67.2857C68.4555 67.146 67.3125 67.5285 66.4668 68.3346C64.8253 69.8985 62.9822 71.2306 60.9887 72.2937C59.8293 72.9119 59.0574 74.1181 58.9746 75.4412L58.7145 79.5936C58.7049 79.7483 58.7191 79.9038 58.7572 80.0542L60.0457 85.1677C60.1772 85.69 60.5785 86.1017 61.097 86.2467C62.8453 86.7357 64.2064 88.1305 64.649 89.8866C64.9859 91.2237 64.7729 92.6069 64.0489 93.7811C63.3255 94.9547 62.1841 95.7664 60.8351 96.0669C58.3204 96.6273 55.7254 95.1503 54.9287 92.7048C54.327 90.8574 54.813 88.8659 56.1968 87.5071C56.5773 87.1336 56.731 86.5862 56.6007 86.0691L55.3042 80.9243C55.2664 80.774 55.2053 80.6303 55.1235 80.4986L53.1248 77.2836C52.3147 75.9803 50.9035 75.2026 49.3341 75.2026C49.3331 75.2026 49.3321 75.2026 49.3309 75.2026C47.7075 75.2026 46.0823 75.0439 44.5002 74.7308C42.9921 74.4322 41.467 74.9138 40.4205 76.0181L37.7779 78.8069C37.6712 78.9196 37.5825 79.0479 37.515 79.1876L34.5569 85.3251C34.3565 85.7408 34.3585 86.2258 34.5623 86.6398C35.0806 87.6927 35.0866 88.9007 34.5787 89.9544C34.1203 90.9054 33.3128 91.6036 32.3052 91.9205C31.2983 92.2372 30.234 92.1245 29.3084 91.6036C27.6804 90.6875 26.9604 88.6153 27.669 86.8864C28.1416 85.7336 29.1072 84.9109 30.3185 84.6291C30.7611 84.5262 31.1334 84.2281 31.3307 83.8188L34.3081 77.6419C34.3753 77.5022 34.4208 77.3529 34.4422 77.1993L35.0255 73.0526C35.2063 71.7681 34.6978 70.4672 33.699 69.6573C31.449 67.8327 29.5494 65.6555 28.0525 63.1858C27.3968 62.1038 26.1958 61.4241 24.9179 61.4121L20.7783 61.3726C20.6204 61.3706 20.4639 61.3944 20.3135 61.4417L15.7813 62.8675C15.2146 63.0458 14.8062 63.5415 14.7398 64.1318C14.4792 66.448 12.8758 68.396 10.6549 69.0946C7.59207 70.0582 4.28805 68.3596 3.291 65.3076C2.89466 64.0943 2.90747 62.8068 3.32843 61.5842C3.59826 60.8001 3.18151 59.9458 2.39744 59.676C1.61317 59.4057 0.759037 59.8231 0.489206 60.607C-0.145936 62.4525 -0.164152 64.4004 0.436762 66.24C1.6566 69.9738 5.1618 72.3664 8.909 72.3662C9.78655 72.3662 10.6781 72.2349 11.5559 71.9587C14.5884 71.004 16.858 68.5091 17.5564 65.4559L20.9885 64.3762L24.8902 64.4132C25.1365 64.4156 25.3647 64.5411 25.4856 64.7409C27.162 67.5071 29.2894 69.9455 31.8086 71.9885C31.9941 72.1388 32.0878 72.386 32.053 72.6334L31.5023 76.5486L28.9155 81.9158C27.1039 82.5569 25.6295 83.9475 24.8916 85.7472C23.5973 88.9043 24.8634 92.547 27.8368 94.2201C29.4926 95.1521 31.4 95.3526 33.2063 94.7846C34.9875 94.2247 36.4739 92.9392 37.2844 91.2577C38.0843 89.5981 38.1744 87.7265 37.5569 86.0179L40.1193 80.7017L42.601 78.0829C42.9347 77.7306 43.4269 77.5785 43.9183 77.6757C45.6918 78.0266 47.5132 78.2048 49.3493 78.2048H49.3505C49.8594 78.2048 50.3176 78.4528 50.5758 78.8686L52.451 81.8847L53.4935 86.0217C51.7576 88.1403 51.2105 90.9813 52.0747 93.6346C53.1636 96.978 56.3577 99.1865 59.773 99.1863C60.3415 99.1863 60.9166 99.1251 61.4887 98.9978C63.6357 98.5196 65.4531 97.2266 66.6057 95.3568C67.7587 93.4865 68.0979 91.2832 67.5611 89.1531C66.9299 86.6482 65.127 84.6053 62.7592 83.6462L61.7265 79.5475L61.9719 75.629C61.9901 75.3377 62.1551 75.0749 62.4021 74.9432C64.6356 73.752 66.7002 72.2599 68.5387 70.5084C68.7323 70.3241 68.9879 70.2362 69.2401 70.2666L70.933 70.4724L73.3735 72.1098C73.8068 73.8701 74.9208 75.3792 76.5033 76.3184C79.4568 78.0709 83.2567 77.3361 85.3423 74.6085C86.4955 73.1006 86.9609 71.2425 86.6528 69.3761C86.3491 67.5357 85.2868 65.8843 83.7383 64.8454C82.1371 63.7713 80.1579 63.4376 78.3069 63.9008L76.2619 62.5288L75.381 60.9535C75.2763 60.7661 75.2627 60.5381 75.3435 60.3279C76.1006 58.362 76.6324 56.3061 76.9243 54.2173C76.9599 53.9621 77.1115 53.7469 77.3292 53.6418L80.0486 52.3299L82.7182 52.0941C84.5738 55.1653 87.8848 56.8844 91.4215 56.5295C92.0742 56.464 92.7238 56.3259 93.3525 56.1191C94.1402 55.8599 94.5684 55.0114 94.3091 54.2237C94.0499 53.4354 93.2012 53.0075 92.4137 53.2665Z" fill="#234E52"/>
<path d="M54.155 29.8775C52.5811 29.5078 50.9583 29.3204 49.3317 29.3204C37.7406 29.3204 28.3104 38.7505 28.3104 50.3418C28.3104 61.9331 37.7404 71.3631 49.3317 71.3631C60.923 71.3631 70.3531 61.9331 70.3531 50.3418C70.3531 43.0944 66.6922 36.4505 60.5603 32.5688C59.8595 32.1252 58.9319 32.3338 58.4887 33.0342C58.0452 33.7348 58.2537 34.6622 58.9543 35.1058C64.2118 38.4338 67.3505 44.1297 67.3505 50.3418C67.3505 60.2773 59.2674 68.3606 49.3317 68.3606C39.396 68.3606 31.3129 60.2775 31.3129 50.3418C31.3129 40.4061 39.396 32.323 49.3317 32.323C50.7275 32.323 52.1193 32.4837 53.4687 32.8006C54.2759 32.9908 55.0838 32.4895 55.2734 31.6824C55.463 30.8752 54.9621 30.0673 54.155 29.8775Z" fill="#234E52"/>
<path d="M16.4871 16.3546C20.3802 16.3546 23.5473 13.1875 23.5473 9.29433C23.5473 5.40121 20.3802 2.2341 16.4871 2.2341C12.594 2.2341 9.42685 5.40141 9.42685 9.29453C9.42685 13.1875 12.594 16.3546 16.4871 16.3546ZM16.4871 5.23686C18.7244 5.23686 20.5447 7.05722 20.5447 9.29453C20.5447 11.5318 18.7244 13.3522 16.4871 13.3522C14.2498 13.3522 12.4294 11.5318 12.4294 9.29453C12.4294 7.05722 14.2498 5.23686 16.4871 5.23686Z" fill="#234E52"/>
<path d="M14.9676 77.3967C12.1152 77.3967 9.79437 79.7173 9.79437 82.5697C9.79437 85.4221 12.115 87.7429 14.9676 87.7429C17.82 87.7429 20.1406 85.4223 20.1406 82.5697C20.1406 79.7175 17.82 77.3967 14.9676 77.3967ZM14.9676 84.7404C13.7708 84.7404 12.7969 83.7667 12.7969 82.5697C12.7969 81.3729 13.7706 80.3993 14.9676 80.3993C16.1644 80.3993 17.138 81.3729 17.138 82.5697C17.138 83.7667 16.1644 84.7404 14.9676 84.7404Z" fill="#234E52"/>
<path d="M82.383 81.692C78.5731 81.692 75.4734 84.7914 75.4734 88.6015C75.4734 92.4115 78.5729 95.511 82.383 95.511C86.193 95.511 89.2925 92.4115 89.2925 88.6015C89.2925 84.7914 86.1928 81.692 82.383 81.692ZM82.383 92.5082C80.2287 92.5082 78.476 90.7557 78.476 88.6013C78.476 86.4468 80.2285 84.6943 82.383 84.6943C84.5374 84.6943 86.2899 86.4468 86.2899 88.6013C86.2899 90.7557 84.5372 92.5082 82.383 92.5082Z" fill="#234E52"/>
<path d="M49.8832 44.9586C49.8832 41.3505 46.9479 38.4152 43.3398 38.4152C39.7317 38.4152 36.7964 41.3505 36.7964 44.9586C36.7964 48.5667 39.7317 51.502 43.3398 51.502C46.9479 51.502 49.8832 48.5665 49.8832 44.9586ZM43.3398 48.4994C41.3873 48.4994 39.799 46.9111 39.799 44.9586C39.799 43.0061 41.3873 41.4178 43.3398 41.4178C45.2923 41.4178 46.8806 43.0061 46.8806 44.9586C46.8806 46.9111 45.2923 48.4994 43.3398 48.4994Z" fill="#234E52"/>
<path d="M47.3875 65.5526C50.1076 65.5526 52.3207 63.3395 52.3207 60.6194C52.3207 57.8993 50.1076 55.6862 47.3875 55.6862C44.6673 55.6862 42.4543 57.8993 42.4543 60.6194C42.4543 63.3397 44.6671 65.5526 47.3875 65.5526ZM47.3875 58.6889C48.452 58.6889 49.3181 59.5551 49.3181 60.6196C49.3181 61.6841 48.452 62.5502 47.3875 62.5502C46.323 62.5502 45.4568 61.6841 45.4568 60.6196C45.4568 59.5551 46.3228 58.6889 47.3875 58.6889Z" fill="#234E52"/>
<path d="M53.7805 50.3418C53.7805 52.7587 55.7468 54.7249 58.1637 54.7249C60.5805 54.7249 62.5468 52.7587 62.5468 50.3418C62.5468 47.9249 60.5805 45.9586 58.1637 45.9586C55.7468 45.9586 53.7805 47.9247 53.7805 50.3418ZM58.1637 48.961C58.9249 48.961 59.5442 49.5803 59.5442 50.3416C59.5442 51.1028 58.9249 51.7222 58.1637 51.7222C57.4024 51.7222 56.7831 51.1028 56.7831 50.3416C56.7831 49.5803 57.4022 48.961 58.1637 48.961Z" fill="#234E52"/>
</g>
<path d="M120.152 50.256C120.152 57.852 125.156 63.18 132.788 63.18C139.16 63.18 143.696 59.508 144.956 53.748H137.36C136.46 55.656 134.768 56.7 132.68 56.7C129.44 56.7 127.316 54.18 127.316 50.256C127.316 46.368 129.44 43.848 132.68 43.848C134.768 43.848 136.46 44.892 137.36 46.8H144.956C143.696 41.04 139.16 37.368 132.788 37.368C125.156 37.368 120.152 42.696 120.152 50.256ZM174.901 50.22C174.901 42.588 169.141 37.224 161.905 37.224C154.705 37.224 148.873 42.588 148.873 50.22C148.873 57.852 154.705 63.252 161.905 63.252C169.105 63.252 174.901 57.852 174.901 50.22ZM156.073 50.22C156.073 46.224 158.233 43.704 161.905 43.704C165.541 43.704 167.737 46.224 167.737 50.22C167.737 54.144 165.541 56.7 161.905 56.7C158.233 56.7 156.073 54.144 156.073 50.22ZM190.961 55.944L185.201 37.62H177.641L186.425 63H195.461L204.209 37.62H196.685L190.961 55.944ZM207.848 63H214.904V37.62H207.848V63ZM230.406 37.62H220.362V63H230.406C238.506 63 243.654 57.636 243.654 50.292C243.654 42.84 238.506 37.62 230.406 37.62ZM227.418 56.772V43.74H229.866C233.934 43.74 236.49 46.08 236.49 50.292C236.49 54.468 233.934 56.772 229.866 56.772H227.418ZM247.555 53.46H263.863V47.592H247.555V53.46ZM272.867 63H280.247V36.684H269.159V43.308H272.867V63ZM285.997 55.044C286.249 59.184 289.201 63.18 295.033 63.18C302.125 63.18 304.357 58.068 304.357 49.104C304.357 41.364 302.305 36.108 294.493 36.108C288.877 36.108 285.349 39.528 285.349 44.928C285.349 50.544 288.697 53.316 293.125 53.316C295.285 53.316 297.121 52.452 298.057 51.048C298.057 55.296 297.481 57.492 295.249 57.492C293.701 57.492 292.873 56.628 292.585 55.044H285.997ZM294.817 47.844C292.981 47.844 291.973 46.728 291.973 45.072C291.973 43.236 293.053 42.228 294.745 42.228C296.437 42.228 297.517 43.164 297.517 45.108C297.517 46.8 296.473 47.844 294.817 47.844ZM324.418 43.236H331.114V63H338.17V43.236H344.938V37.62H324.418V43.236ZM362.417 46.152C362.417 47.88 361.445 48.816 359.537 48.816H356.045V43.524H359.537C361.445 43.524 362.417 44.568 362.417 46.152ZM348.989 37.62V63H356.045V53.64H356.801L361.841 63H369.725L364.001 53.1C367.781 51.948 369.581 49.068 369.581 45.756C369.581 41.22 366.413 37.62 360.113 37.62H348.989ZM391.654 63H399.106L389.89 37.62H381.754L372.502 63H379.918L381.286 58.86H390.286L391.654 63ZM388.522 53.46H383.086L385.786 45.252L388.522 53.46ZM401.981 50.256C401.981 57.852 406.985 63.18 414.617 63.18C420.989 63.18 425.525 59.508 426.785 53.748H419.189C418.289 55.656 416.597 56.7 414.509 56.7C411.269 56.7 409.145 54.18 409.145 50.256C409.145 46.368 411.269 43.848 414.509 43.848C416.597 43.848 418.289 44.892 419.189 46.8H426.785C425.525 41.04 420.989 37.368 414.617 37.368C406.985 37.368 401.981 42.696 401.981 50.256ZM446.579 63H455.111L445.319 49.932L454.643 37.62H446.507L438.623 48.564V37.62H431.567V63H438.623V51.876L446.579 63ZM475.364 37.62H459.128V63H475.364V57.348H466.184V52.776H474.284V47.412H466.184V43.272H475.364V37.62ZM493.718 46.152C493.718 47.88 492.746 48.816 490.838 48.816H487.346V43.524H490.838C492.746 43.524 493.718 44.568 493.718 46.152ZM480.29 37.62V63H487.346V53.64H488.102L493.142 63H501.026L495.302 53.1C499.082 51.948 500.882 49.068 500.882 45.756C500.882 41.22 497.714 37.62 491.414 37.62H480.29Z" fill="#1A202C"/>
<defs>
<clipPath id="clip0">
<rect width="100" height="100" fill="white"/>
</clipPath>
</defs>
</svg>
